<?xml version="1.0" encoding="UTF-8" standalone="no"?>
<svg width="44px" height="44px" viewBox="0 0 44 44" version="1.1" xmlns="http://www.w3.org/2000/svg" xmlns:xlink="http://www.w3.org/1999/xlink">
    <!-- Generator: Sketch 3.7.2 (28276) - http://www.bohemiancoding.com/sketch -->
    <title>net-tree</title>
    <desc>Created with Sketch.</desc>
    <defs></defs>
    <g id="44px-Glyph" stroke="none" stroke-width="1" fill="none" fill-rule="evenodd">
        <g id="net-tree" fill="#000000">
            <path d="M21,16 C17.141,16 14,12.859 14,9 C14,5.141 17.141,2 21,2 C24.859,2 28,5.141 28,9 C28,12.859 24.859,16 21,16" id="Fill-219"></path>
            <path d="M35,44 C31.141,44 28,40.859 28,37 C28,33.141 31.141,30 35,30 C38.859,30 42,33.141 42,37 C42,40.859 38.859,44 35,44" id="Fill-221"></path>
            <path d="M7,44 C3.141,44 0,40.859 0,37 C0,33.141 3.141,30 7,30 C10.859,30 14,33.141 14,37 C14,40.859 10.859,44 7,44" id="Fill-223"></path>
            <path d="M32,22 L22,22 L22,17.941 C21.671,17.977 21.338,18 21,18 C20.662,18 20.329,17.977 20,17.941 L20,22 L10,22 C7.794,22 6,23.794 6,26 L6,28.059 C6.329,28.023 6.662,28 7,28 C7.338,28 7.671,28.023 8,28.059 L8,26 C8,24.898 8.898,24 10,24 L32,24 C33.103,24 34,24.898 34,26 L34,28.059 C34.329,28.023 34.662,28 35,28 C35.338,28 35.671,28.023 36,28.059 L36,26 C36,23.794 34.206,22 32,22" id="Fill-225"></path>
        </g>
    </g>
</svg>